<svg xmlns="http://www.w3.org/2000/svg" viewBox="0 0 84 68"><defs><style>.cls-1{fill:#454444;}.cls-2{fill:#bfd3c5;}.cls-3{fill:#fff;}.cls-4{fill:#df4e3c;fill-rule:evenodd;}</style></defs><g id="Layer_1" data-name="Layer 1"><path class="cls-1" d="M78.45,50.4s5.23-7,5.55-7.34H71.94c-.43,0-.85-.1-1,.63s.21,1,.64,1h4.59V57.73h7.68Z"/><path class="cls-1" d="M7.79,44.63h4.59c.53,0,.64-.31.64-.94,0-.84-.53-.63-1-.63H0c.32.21,5.55,7.34,5.55,7.34L0,57.73H7.68V44.63Z"/><path class="cls-2" d="M73.86,33.11c0-1.78,2.35-3.77,2.13-5.45s-3.41-2.72-3.94-4.29,1.06-4.3.32-5.77-4-1.57-5.13-2.93-.21-4.3-1.49-5.55S61.69,8.8,60.2,8l-3.1,4.4v.11a25.34,25.34,0,0,1,10.68,20,25.7,25.7,0,0,1-25.3,26.4H41.41A25.74,25.74,0,0,1,16.12,32.59a25.34,25.34,0,0,1,10.67-20v-.1l-3.1-4.4c-1.49.84-4.37-.11-5.55,1.15s-.42,4.19-1.49,5.55-4.16,1.37-5.12,2.94c-.75,1.46.85,4.08.32,5.76S8.22,26,7.9,27.77,10,31.43,10,33.21s-2.56,3.57-2.35,5.24,3.21,2.83,3.74,4.51-1.39,4.19-.53,5.76,3.95,1.78,4.91,3.14,2.13,6.61,2.34,6.92C19.32,60,22.41,59,23.8,60s1.6,4.19,3.2,4.82a3.31,3.31,0,0,0,1,.21c1.28,0,2.89-.84,4.17-.84a1.64,1.64,0,0,1,.74.1c1.71.53,2.89,3.36,4.59,3.67h.22c1.6,0,3.31-2.31,5-2.31s3.63,2.1,5.23,2.1h.22c1.81-.31,2.77-3.35,4.37-3.88a2,2,0,0,1,.75-.1c1.28,0,2.88.63,4.16.63a3.31,3.31,0,0,0,1-.21c1.6-.84,1.6-3.88,3-5S65.75,59,67,57.73s.21-4.19,1.28-5.55,4.27-1.57,4.91-3.14c.85-1.58-1.07-4.09-.53-5.77s3.41-2.83,3.73-4.5C76.42,36.67,74,34.89,73.86,33.11Z"/><path class="cls-1" d="M74.61,45.89H9.5V60.56H74.61Z"/><path class="cls-3" d="M23.48,55.22h-3.2l-.53,1.57H18.46L21,49.45h1.81l2.56,7.34H24Zm-.32-1.16L22,50.71h-.11l-1.17,3.35Z"/><path class="cls-3" d="M26,54.38h1.28a1.35,1.35,0,0,0,1.5,1.26c.85,0,1.28-.42,1.28-1,0-1.78-4-.42-4-3.35a2.21,2.21,0,0,1,2.45-2.1,2.28,2.28,0,0,1,2.57,2.31H29.89A1.21,1.21,0,0,0,28.6,50.4c-.85,0-1.17.42-1.17.94,0,1.68,3.95.42,3.95,3.35,0,1.16-1,2.2-2.67,2.2A2.47,2.47,0,0,1,26,54.38Z"/><path class="cls-3" d="M32.34,54.38h1.28a1.35,1.35,0,0,0,1.5,1.26c.85,0,1.28-.42,1.28-1,0-1.78-3.95-.42-3.95-3.35a2.21,2.21,0,0,1,2.45-2.1,2.28,2.28,0,0,1,2.56,2.31H36.18A1.14,1.14,0,0,0,34.9,50.4c-.85,0-1.17.42-1.17.94,0,1.68,4,.42,4,3.35,0,1.16-1,2.2-2.67,2.2A2.53,2.53,0,0,1,32.34,54.38Z"/><path class="cls-3" d="M39.17,54.06V49.45h1.28v4.61a1.53,1.53,0,0,0,1.6,1.68,1.48,1.48,0,0,0,1.6-1.68V49.45h1.29v4.61a2.67,2.67,0,0,1-2.89,2.83A2.66,2.66,0,0,1,39.17,54.06Z"/><path class="cls-3" d="M46.64,49.45H49.1a2.33,2.33,0,0,1,2.56,2.2,2.16,2.16,0,0,1-1.6,2.21l1.81,2.93h-1.6l-1.6-2.73h-.85v2.73H46.54Zm2.56,3.46a1.11,1.11,0,0,0,1.18-1.15c0-.63-.43-1-1.28-1H47.92v2.2Z"/><path class="cls-3" d="M53.26,49.45h4.48v1.16h-3.2v1.78h2.78v1.15H54.54v2h3.31v1.15H53.26Z"/><path class="cls-3" d="M59,55.64h.64V50.5H59V49.35h2.89A3.5,3.5,0,0,1,65.64,53a3.39,3.39,0,0,1-3.73,3.66H59Zm2.89,0a2.52,2.52,0,0,0,0-5h-.86v5Z"/><path class="cls-1" d="M22.84,40.86A2.26,2.26,0,0,1,22,41a3.88,3.88,0,1,1,0-7.76,3.91,3.91,0,0,1,4,3.88,3.69,3.69,0,0,1-1.82,3.25l.54,1.36H23.05Zm-.64-1.57-.75-1.88h1.6l.54,1.25a2.5,2.5,0,0,0,.75-1.78A2.37,2.37,0,0,0,22,34.47a2.31,2.31,0,0,0-2.35,2.41A2.37,2.37,0,0,0,22,39.29C22.09,39.4,22.09,39.4,22.2,39.29Z"/><path class="cls-1" d="M27,37.93V33.21h1.71v4.72A1.37,1.37,0,0,0,30.1,39.4c1,0,1.39-.53,1.39-1.47V33.21h1.7v4.72a2.72,2.72,0,0,1-3,2.93A2.79,2.79,0,0,1,27,37.93Z"/><path class="cls-1" d="M39.17,39.19h-3l-.53,1.57H33.83l2.67-7.55h2.35l2.67,7.55H39.81Zm-.43-1.47-1-2.93h-.1l-1,2.93Z"/><path class="cls-1" d="M42.27,33.21H44v6.08h3v1.57H42.27V33.21Z"/><path class="cls-1" d="M47.92,39.29H49V34.68H47.92V33.21h3.74v1.47H50.59v4.61h1.07v1.47H47.92Z"/><path class="cls-1" d="M54.75,34.68H52.62V33.21h5.76v1.58H56.25v6.07H54.54Z"/><path class="cls-1" d="M61.8,37.51,59,33.21H61l1.6,2.73h.1l1.6-2.73h1.93l-2.78,4.4v3.15H61.69Z"/><path class="cls-4" d="M42.05,8.28,45.47,10l-.75-3.56,2.67-2.51-3.74-.63L42.05,0l-1.6,3.25-3.73.63,2.67,2.51L38.64,10Z"/><path class="cls-4" d="M52.94,10,55.18,11l-.43-2.3L56.46,7l-2.35-.31-1.17-2.1-1,2.1L49.52,7,51.34,8.7,50.91,11Z"/><path class="cls-4" d="M31.17,10l2,1.05-.42-2.3L34.58,7l-2.45-.31-1-2.1L30,6.71,27.64,7,29.35,8.7,28.92,11Z"/></g><g id="Layer_2" data-name="Layer 2"><path class="cls-1" d="M44,27.89a2.49,2.49,0,0,1,4.86-.7H47.73a1.29,1.29,0,0,0-1.25-.78,1.48,1.48,0,0,0,0,3,1.28,1.28,0,0,0,1.25-.77h1.12a2.32,2.32,0,0,1-2.37,1.74A2.39,2.39,0,0,1,44,27.89Z"/><path class="cls-1" d="M20.3,29.33H18.4l-.33,1H17l1.64-4.7H20l1.64,4.7H20.63ZM20,28.42l-.59-1.86h-.06l-.66,1.86Z"/><path class="cls-1" d="M29.81,27.81a2.39,2.39,0,0,1,2.49-2.44,2.42,2.42,0,0,1,2.49,2.44,2.49,2.49,0,0,1-5,0Zm4,0a1.46,1.46,0,0,0-1.44-1.48,1.48,1.48,0,0,0,0,3A1.45,1.45,0,0,0,33.81,27.81Z"/><path class="cls-1" d="M53,27.94a2.39,2.39,0,0,1,2.49-2.44A2.42,2.42,0,0,1,58,27.94a2.49,2.49,0,0,1-5,0Zm4,0a1.46,1.46,0,0,0-1.45-1.48,1.48,1.48,0,0,0,0,3A1.46,1.46,0,0,0,57,27.94Z"/><path class="cls-1" d="M22,28.54v-2.9h1v2.9a.83.83,0,0,0,.85.9c.59,0,.85-.32.85-.9v-2.9h1v2.9A1.68,1.68,0,0,1,24,30.34,1.72,1.72,0,0,1,22,28.54Z"/><path class="cls-1" d="M27.45,26.44H26.14v-.9h3.54v1H28.37v3.73H27.32Z"/><path class="cls-1" d="M42.3,29.17H40.47l-.33,1H39l1.64-4.63h1.45l1.64,4.63h-1ZM42,28.26l-.59-1.8h-.06l-.59,1.8Z"/><path class="cls-1" d="M50.4,26.49H49.09v-.9h3.54v1H51.32v3.73h-1Z"/><path class="cls-1" d="M59,25.69h1.51A1.43,1.43,0,0,1,62.08,27a1.32,1.32,0,0,1-1,1.35l1.11,1.81h-1l-1-1.68h-.52V30.2h-.79Zm1.57,2.12a.68.68,0,0,0,.72-.71c0-.38-.26-.64-.78-.64h-.73v1.35Z"/><path class="cls-1" d="M63.92,28.31l-1.71-2.64h1.18l1,1.68h.07l1-1.68H66.6l-1.7,2.71v1.93H63.85Z"/><polygon class="cls-1" points="35.21 25.45 35.19 30.17 36.34 30.17 36.34 28.26 38.35 28.26 38.34 27.29 36.38 27.29 36.38 26.43 38.86 26.46 38.86 25.51 35.21 25.45"/></g></svg>